<?xml version="1.0" encoding="utf-8"?>
<!-- Generator: Adobe Illustrator 21.1.0, SVG Export Plug-In . SVG Version: 6.00 Build 0)  -->
<svg version="1.1" id="Camada_1" xmlns="http://www.w3.org/2000/svg" xmlns:xlink="http://www.w3.org/1999/xlink" x="0px" y="0px"
	 width="238px" height="44.5px" viewBox="0 0 238 44.5" style="enable-background:new 0 0 238 44.5;" xml:space="preserve">
<style type="text/css">
	.st0{fill:#FFFFFF;}
	.st1{fill:none;stroke:#FFFFFF;stroke-miterlimit:10;}
</style>
<g>
	<g>
		<g>
			<ellipse transform="matrix(0.8116 -0.5842 0.5842 0.8116 -0.8926 28.2733)" class="st0" cx="43.4" cy="15.5" rx="4.7" ry="4.7"/>
			<g>
				<path class="st0" d="M18.7,26.3c-0.4-0.6-1-1-2.2-1.7C15.3,24,13.2,23,11.7,21s-1.7-4.4-1.9-5.7s-0.5-2-0.9-2.6
					c-1.5-2.1-4.4-2.6-6.5-1.1s-2.6,4.4-1.1,6.5c0.4,0.6,1,1,2.2,1.7c1.2,0.6,3.4,1.6,4.8,3.6s1.7,4.4,1.9,5.7
					c0.2,1.3,0.5,2,0.9,2.6c1.5,2.1,4.4,2.6,6.5,1.1C19.7,31.3,20.2,28.4,18.7,26.3z"/>
				<path class="st0" d="M37.9,26.3c-0.4-0.6-1-1-2.2-1.7C34.5,24,32.3,23,30.9,21s-1.7-4.4-1.9-5.7c-0.2-1.3-0.5-2-0.9-2.6
					c-1.5-2.1-4.4-2.6-6.5-1.1S19,16,20.5,18.1c0.4,0.6,1,1,2.2,1.7c1.2,0.6,3.4,1.6,4.8,3.6s1.7,4.4,1.9,5.7c0.2,1.3,0.5,2,0.9,2.6
					c1.5,2.1,4.4,2.6,6.5,1.1C38.9,31.4,39.4,28.4,37.9,26.3z"/>
			</g>
		</g>
		<g>
			<path class="st0" d="M58,20.1L58,20.1c0-0.7,0.5-1.2,1.2-1.2H67c0.5,0,0.9-0.4,0.9-0.9l0,0c0-0.5-0.4-0.9-0.9-0.9h-7.8
				c-1.7,0-3.1,1.4-3.1,3.1l0,0c0,1.7,1.4,3.1,3.1,3.1h6c0.9,0,1.6,0.7,1.6,1.6l0,0c0,0.9-0.7,1.6-1.6,1.6h-7.9
				c-0.5,0-0.9,0.4-0.9,0.9l0,0c0,0.5,0.4,0.9,0.9,0.9h7.9c1.9,0,3.5-1.6,3.5-3.5l0,0c0-1.9-1.6-3.5-3.5-3.5h-6
				C58.5,21.3,58,20.8,58,20.1z"/>
			<path class="st0" d="M70.2,22.3V23c0,2.9,2.4,5.3,5.3,5.3h3.8c2.9,0,5.3-2.4,5.3-5.3v-0.7c0-2.9-2.4-5.3-5.3-5.3h-3.8
				C72.5,17,70.2,19.4,70.2,22.3z M79.1,26.4h-3.5c-1.9,0-3.5-1.6-3.5-3.5v-0.5c0-1.9,1.6-3.5,3.5-3.5h3.5c1.9,0,3.5,1.6,3.5,3.5
				v0.5C82.6,24.8,81,26.4,79.1,26.4z"/>
			<path class="st0" d="M95.7,17.9L95.7,17.9c0-0.5-0.4-0.9-0.9-0.9H87c-0.5,0-0.9,0.4-0.9,0.9v9.4c0,0.5,0.4,0.9,0.9,0.9l0,0
				c0.5,0,0.9-0.4,0.9-0.9v-3.4c0-0.2,0.2-0.4,0.4-0.4h6c0.5,0,0.9-0.4,0.9-0.9l0,0c0-0.5-0.4-0.9-0.9-0.9h-6
				c-0.2,0-0.4-0.2-0.4-0.4v-2.1c0-0.2,0.2-0.4,0.4-0.4h6.4C95.3,18.9,95.7,18.4,95.7,17.9z"/>
			<path class="st0" d="M96.9,17.9L96.9,17.9c0,0.5,0.4,0.9,0.9,0.9h3.2c0.2,0,0.4,0.2,0.4,0.4v8.1c0,0.5,0.4,0.9,0.9,0.9l0,0
				c0.5,0,0.9-0.4,0.9-0.9v-8.1c0-0.2,0.2-0.4,0.4-0.4h3c0.5,0,0.9-0.4,0.9-0.9l0,0c0-0.5-0.4-0.9-0.9-0.9h-8.8
				C97.3,17,96.9,17.4,96.9,17.9z"/>
			<path class="st0" d="M142,26v-8.1c0-0.5-0.4-0.9-0.9-0.9l0,0c-0.5,0-0.9,0.4-0.9,0.9v9.4c0,0.5,0.4,0.9,0.9,0.9h7.7
				c0.5,0,0.9-0.4,0.9-0.9l0,0c0-0.5-0.4-0.9-0.9-0.9h-6.4C142.2,26.4,142,26.2,142,26z"/>
			<path class="st0" d="M152.7,26v-8.1c0-0.5-0.4-0.9-0.9-0.9l0,0c-0.5,0-0.9,0.4-0.9,0.9v9.4c0,0.5,0.4,0.9,0.9,0.9h7.7
				c0.5,0,0.9-0.4,0.9-0.9l0,0c0-0.5-0.4-0.9-0.9-0.9h-6.4C152.9,26.4,152.7,26.2,152.7,26z"/>
			<path class="st0" d="M138.4,17.9L138.4,17.9c0-0.5-0.4-0.9-0.9-0.9h-7.7c-0.5,0-0.9,0.4-0.9,0.9v9.4c0,0.5,0.4,0.9,0.9,0.9h7.7
				c0.5,0,0.9-0.4,0.9-0.9l0,0c0-0.5-0.4-0.9-0.9-0.9H131c-0.2,0-0.4-0.2-0.4-0.4v-2.1c0-0.2,0.2-0.4,0.4-0.4h6
				c0.5,0,0.9-0.4,0.9-0.9l0,0c0-0.5-0.4-0.9-0.9-0.9h-6c-0.2,0-0.4-0.2-0.4-0.4v-2.1c0-0.2,0.2-0.4,0.4-0.4h6.4
				C138,18.9,138.4,18.4,138.4,17.9z"/>
			<path class="st0" d="M126.3,17.2L126.3,17.2c-0.5-0.3-1.1-0.1-1.4,0.4l-4.2,7.7l-4.2-7.7c-0.3-0.5-0.9-0.7-1.4-0.4l0,0
				c-0.5,0.3-0.7,0.9-0.4,1.4l2,3.7l-1.7,3.1l-4.2-7.7c-0.3-0.5-0.9-0.7-1.4-0.4c-0.5,0.3-0.7,0.9-0.4,1.4l5.1,9.4
				c0.1,0.2,0.2,0.3,0.4,0.4c0.3,0.2,0.6,0.2,0.9,0l0,0c0.2-0.1,0.3-0.2,0.4-0.4l2-3.6l2,3.6c0.1,0.2,0.2,0.3,0.4,0.4
				c0.3,0.2,0.6,0.2,0.9,0l0,0c0.2-0.1,0.3-0.2,0.4-0.4l5.1-9.4C127,18.1,126.8,17.4,126.3,17.2z"/>
		</g>
	</g>
	<g>
		<path class="st0" d="M134.4,32.1c-0.3,0-0.5-0.1-0.6-0.2c-0.1-0.2-0.2-0.3-0.2-0.6v-0.1h0.3v0.1c0,0.1,0,0.2,0.1,0.3
			c0.1,0.1,0.2,0.1,0.3,0.1s0.2,0,0.3-0.1s0.1-0.2,0.1-0.3c0-0.1,0-0.3-0.1-0.4s-0.2-0.2-0.3-0.2c-0.1-0.1-0.2-0.1-0.4-0.2
			c-0.1-0.1-0.2-0.2-0.3-0.3c-0.1-0.1-0.1-0.3-0.1-0.4c0-0.2,0.1-0.4,0.2-0.5c0.2-0.1,0.3-0.2,0.6-0.2c0.2,0,0.4,0.1,0.6,0.2
			c0.1,0.2,0.2,0.3,0.2,0.5l0,0h-0.3c0-0.1,0-0.2-0.1-0.3c-0.1-0.1-0.2-0.1-0.3-0.1s-0.2,0-0.3,0.1s-0.1,0.2-0.1,0.3
			c0,0.1,0,0.2,0.1,0.3c0.1,0.1,0.2,0.2,0.3,0.2c0.1,0.1,0.2,0.1,0.4,0.2s0.2,0.2,0.3,0.3c0.1,0.1,0.1,0.3,0.1,0.5s-0.1,0.4-0.2,0.5
			C134.8,32.1,134.6,32.1,134.4,32.1z"/>
		<path class="st0" d="M138.6,30v1.4c0,0.2-0.1,0.4-0.2,0.5c-0.1,0.2-0.3,0.2-0.6,0.2c-0.2,0-0.4-0.1-0.6-0.2
			c-0.1-0.2-0.2-0.3-0.2-0.5V30c0-0.2,0.1-0.4,0.2-0.5c0.1-0.2,0.3-0.2,0.6-0.2c0.2,0,0.4,0.1,0.6,0.2
			C138.5,29.6,138.6,29.8,138.6,30z M138.2,31.4v-1.5c0-0.1,0-0.2-0.1-0.3c-0.1-0.1-0.2-0.1-0.3-0.1s-0.3,0-0.3,0.1
			c-0.1,0.1-0.1,0.2-0.1,0.3v1.4c0,0.1,0,0.2,0.1,0.3c0.1,0.1,0.2,0.1,0.3,0.1s0.3,0,0.3-0.1C138.2,31.6,138.2,31.5,138.2,31.4z"/>
		<path class="st0" d="M140.4,29.2h0.3v2.5h0.9V32h-1.3v-2.8H140.4z"/>
		<path class="st0" d="M144.9,29.2v2.2c0,0.2-0.1,0.4-0.2,0.5c-0.1,0.1-0.3,0.2-0.6,0.2c-0.2,0-0.4-0.1-0.6-0.2
			c-0.1-0.1-0.2-0.3-0.2-0.5v-2.2h0.3v2.2c0,0.1,0,0.2,0.1,0.3c0.1,0.1,0.2,0.1,0.3,0.1s0.3,0,0.3-0.1c0.1-0.1,0.1-0.2,0.1-0.3v-2.2
			H144.9z"/>
		<path class="st0" d="M146.5,29.6v-0.3h1.6v0.3h-0.6v2.5h-0.3v-2.5C147.2,29.6,146.5,29.6,146.5,29.6z"/>
		<path class="st0" d="M150,29.2v2.9h-0.4v-2.9C149.6,29.2,150,29.2,150,29.2z"/>
		<path class="st0" d="M153.5,30v1.4c0,0.2-0.1,0.4-0.2,0.5c-0.1,0.2-0.3,0.2-0.6,0.2c-0.2,0-0.4-0.1-0.6-0.2
			c-0.1-0.2-0.2-0.3-0.2-0.5V30c0-0.2,0.1-0.4,0.2-0.5c0.1-0.2,0.3-0.2,0.6-0.2c0.2,0,0.4,0.1,0.6,0.2
			C153.4,29.6,153.5,29.8,153.5,30z M153.2,31.4v-1.5c0-0.1,0-0.2-0.1-0.3c-0.1-0.1-0.2-0.1-0.3-0.1s-0.3,0-0.3,0.1
			c-0.1,0.1-0.1,0.2-0.1,0.3v1.4c0,0.1,0,0.2,0.1,0.3c0.1,0.1,0.2,0.1,0.3,0.1s0.3,0,0.3-0.1C153.1,31.6,153.2,31.5,153.2,31.4z"/>
		<path class="st0" d="M156.6,29.2h0.3v2.9h-0.3l-0.9-2.2c0,0.3,0,0.5,0,0.7v1.5h-0.3v-2.9h0.3l1,2.2c0-0.2,0-0.4,0-0.7v-1.5
			C156.7,29.2,156.6,29.2,156.6,29.2z"/>
		<path class="st0" d="M159.5,32.1c-0.3,0-0.5-0.1-0.6-0.2c-0.1-0.2-0.2-0.3-0.2-0.6v-0.1h0.3v0.1c0,0.1,0,0.2,0.1,0.3
			c0.1,0.1,0.2,0.1,0.3,0.1s0.2,0,0.3-0.1s0.1-0.2,0.1-0.3c0-0.1,0-0.3-0.1-0.4s-0.2-0.2-0.3-0.2c-0.1-0.1-0.2-0.1-0.4-0.2
			c-0.1-0.1-0.2-0.2-0.3-0.3c-0.1-0.1-0.1-0.3-0.1-0.4c0-0.2,0.1-0.4,0.2-0.5c0.2-0.1,0.3-0.2,0.6-0.2c0.2,0,0.4,0.1,0.6,0.2
			c0.1,0.2,0.2,0.3,0.2,0.5l0,0h-0.3c0-0.1,0-0.2-0.1-0.3c-0.1-0.1-0.2-0.1-0.3-0.1s-0.2,0-0.3,0.1s-0.1,0.2-0.1,0.3
			c0,0.1,0,0.2,0.1,0.3c0.1,0.1,0.2,0.2,0.3,0.2c0.1,0.1,0.2,0.1,0.4,0.2s0.2,0.2,0.3,0.3c0.1,0.1,0.1,0.3,0.1,0.5s-0.1,0.4-0.2,0.5
			C159.9,32.1,159.7,32.1,159.5,32.1z"/>
	</g>
</g>
<g>
	<path class="st0" d="M189.5,14.2c-0.2-0.2-0.5-0.4-0.8-0.5c-0.3-0.1-0.7-0.2-1.1-0.2c-0.6,0-1.1,0.1-1.3,0.3
		c-0.3,0.2-0.4,0.5-0.4,0.9c0,0.2,0,0.4,0.1,0.5c0.1,0.1,0.2,0.2,0.3,0.3c0.2,0.1,0.4,0.2,0.6,0.3c0.2,0.1,0.5,0.1,0.9,0.2
		c0.4,0.1,0.7,0.2,1,0.3c0.3,0.1,0.5,0.2,0.8,0.4c0.2,0.1,0.4,0.3,0.5,0.5c0.1,0.2,0.2,0.5,0.2,0.8c0,0.3-0.1,0.6-0.2,0.8
		c-0.1,0.2-0.3,0.4-0.5,0.6s-0.5,0.3-0.8,0.3c-0.3,0.1-0.6,0.1-1,0.1c-1.1,0-2-0.3-2.8-1l0.3-0.6c0.1,0.1,0.3,0.3,0.4,0.4
		c0.2,0.1,0.4,0.2,0.6,0.3c0.2,0.1,0.4,0.2,0.7,0.2s0.5,0.1,0.8,0.1c0.6,0,1-0.1,1.3-0.3c0.3-0.2,0.5-0.5,0.5-0.9
		c0-0.2,0-0.4-0.1-0.5c-0.1-0.1-0.2-0.3-0.4-0.4c-0.2-0.1-0.4-0.2-0.7-0.3c-0.3-0.1-0.6-0.2-0.9-0.2c-0.4-0.1-0.7-0.2-1-0.3
		s-0.5-0.2-0.7-0.3s-0.3-0.3-0.4-0.5c-0.1-0.2-0.1-0.4-0.1-0.7c0-0.3,0.1-0.6,0.2-0.9c0.1-0.2,0.3-0.5,0.5-0.6
		c0.2-0.2,0.5-0.3,0.8-0.4c0.3-0.1,0.6-0.1,1-0.1c0.5,0,0.9,0.1,1.2,0.2c0.4,0.1,0.7,0.3,1,0.6L189.5,14.2z"/>
	<path class="st0" d="M193.4,19.9c-0.4,0-0.7-0.1-1-0.2c-0.3-0.1-0.6-0.3-0.8-0.6c-0.2-0.2-0.4-0.5-0.5-0.8s-0.2-0.7-0.2-1
		c0-0.4,0.1-0.7,0.2-1c0.1-0.3,0.3-0.6,0.5-0.8c0.2-0.2,0.5-0.4,0.8-0.6c0.3-0.1,0.6-0.2,1-0.2c0.4,0,0.7,0.1,1,0.2
		c0.3,0.1,0.6,0.3,0.8,0.6c0.2,0.2,0.4,0.5,0.5,0.8c0.1,0.3,0.2,0.7,0.2,1c0,0.4-0.1,0.7-0.2,1c-0.1,0.3-0.3,0.6-0.5,0.8
		c-0.2,0.2-0.5,0.4-0.8,0.6C194.1,19.8,193.7,19.9,193.4,19.9z M191.5,17.3c0,0.3,0,0.5,0.1,0.8c0.1,0.2,0.2,0.5,0.4,0.6
		c0.2,0.2,0.4,0.3,0.6,0.4c0.2,0.1,0.5,0.2,0.7,0.2c0.3,0,0.5-0.1,0.7-0.2c0.2-0.1,0.4-0.3,0.6-0.4s0.3-0.4,0.4-0.6
		c0.1-0.2,0.1-0.5,0.1-0.8c0-0.3,0-0.5-0.1-0.8s-0.2-0.5-0.4-0.7s-0.4-0.3-0.6-0.4s-0.5-0.2-0.7-0.2c-0.3,0-0.5,0.1-0.7,0.2
		s-0.4,0.3-0.6,0.4c-0.2,0.2-0.3,0.4-0.4,0.7S191.5,17,191.5,17.3z"/>
	<path class="st0" d="M197,12.7h0.7v6c0,0.2,0.1,0.3,0.2,0.4c0.1,0.1,0.3,0.2,0.4,0.2c0.1,0,0.2,0,0.3,0c0.1,0,0.2,0,0.3-0.1
		l0.1,0.5c-0.1,0.1-0.3,0.1-0.5,0.1c-0.2,0-0.3,0-0.5,0c-0.3,0-0.5-0.1-0.7-0.3c-0.2-0.2-0.3-0.4-0.3-0.7V12.7z"/>
	<path class="st0" d="M201.2,19.9c-0.6,0-1-0.2-1.2-0.5c-0.3-0.4-0.4-0.9-0.4-1.6v-3h0.7v2.9c0,1.1,0.4,1.7,1.2,1.7
		c0.2,0,0.4,0,0.6-0.1c0.2-0.1,0.4-0.2,0.5-0.3c0.2-0.1,0.3-0.3,0.4-0.4c0.1-0.2,0.2-0.4,0.3-0.6v-3.2h0.7V19c0,0.2,0.1,0.3,0.2,0.3
		v0.6c-0.1,0-0.1,0-0.2,0s-0.1,0-0.1,0c-0.2,0-0.3-0.1-0.4-0.2c-0.1-0.1-0.1-0.2-0.1-0.4v-0.6c-0.2,0.4-0.5,0.7-0.9,0.9
		C202.1,19.8,201.7,19.9,201.2,19.9z"/>
	<path class="st0" d="M206.9,21c0.1,0,0.2,0.1,0.4,0.1c0.2,0,0.3,0.1,0.5,0.1c0.4,0,0.6-0.1,0.6-0.3c0-0.1,0-0.2-0.1-0.3
		c-0.1-0.1-0.2-0.1-0.4-0.1c-0.1,0-0.3,0-0.4,0s-0.3,0.1-0.4,0.1l0.4-0.8c-0.3,0-0.7-0.1-0.9-0.3s-0.5-0.3-0.7-0.6
		c-0.2-0.2-0.4-0.5-0.5-0.8c-0.1-0.3-0.2-0.6-0.2-1c0-0.4,0.1-0.7,0.2-1c0.1-0.3,0.3-0.6,0.5-0.8c0.2-0.2,0.5-0.4,0.8-0.6
		s0.7-0.2,1-0.2c0.5,0,0.9,0.1,1.3,0.3c0.4,0.2,0.6,0.5,0.8,0.9l-0.6,0.2c-0.1-0.3-0.3-0.5-0.6-0.6c-0.3-0.1-0.5-0.2-0.9-0.2
		c-0.3,0-0.5,0.1-0.7,0.2c-0.2,0.1-0.4,0.2-0.6,0.4c-0.2,0.2-0.3,0.4-0.4,0.6s-0.1,0.5-0.1,0.8c0,0.3,0,0.6,0.1,0.8
		c0.1,0.3,0.2,0.5,0.4,0.7c0.2,0.2,0.4,0.3,0.6,0.4c0.2,0.1,0.5,0.2,0.7,0.2c0.2,0,0.3,0,0.5-0.1s0.3-0.1,0.4-0.2
		c0.1-0.1,0.3-0.2,0.4-0.3c0.1-0.1,0.2-0.2,0.2-0.3l0.7,0.2c-0.1,0.4-0.4,0.6-0.7,0.9c-0.4,0.2-0.8,0.4-1.2,0.4l-0.3,0.4
		c0.1,0,0.1,0,0.2,0s0.1,0,0.2,0c0.2,0,0.4,0.1,0.5,0.2c0.1,0.1,0.2,0.2,0.2,0.4c0,0.2-0.1,0.4-0.3,0.5c-0.2,0.1-0.4,0.2-0.7,0.2
		c-0.2,0-0.4,0-0.5-0.1s-0.3-0.1-0.4-0.1L206.9,21z"/>
	<path class="st0" d="M212.9,19.9c-0.4,0-0.7-0.1-1-0.2c-0.3-0.1-0.6-0.3-0.8-0.6c-0.2-0.2-0.4-0.5-0.5-0.8s-0.2-0.7-0.2-1
		c0-0.4,0.1-0.7,0.2-1c0.1-0.3,0.3-0.6,0.5-0.8c0.2-0.2,0.5-0.4,0.8-0.6c0.3-0.1,0.6-0.2,1-0.2c0.4,0,0.7,0.1,1,0.2
		c0.3,0.1,0.6,0.3,0.8,0.6c0.2,0.2,0.4,0.5,0.5,0.8c0.1,0.3,0.2,0.7,0.2,1c0,0.4-0.1,0.7-0.2,1c-0.1,0.3-0.3,0.6-0.5,0.8
		c-0.2,0.2-0.5,0.4-0.8,0.6C213.6,19.8,213.3,19.9,212.9,19.9z M211,17.3c0,0.3,0,0.5,0.1,0.8c0.1,0.2,0.2,0.5,0.4,0.6
		c0.2,0.2,0.4,0.3,0.6,0.4c0.2,0.1,0.5,0.2,0.7,0.2c0.3,0,0.5-0.1,0.7-0.2c0.2-0.1,0.4-0.3,0.6-0.4s0.3-0.4,0.4-0.6
		c0.1-0.2,0.1-0.5,0.1-0.8c0-0.3,0-0.5-0.1-0.8s-0.2-0.5-0.4-0.7s-0.4-0.3-0.6-0.4s-0.5-0.2-0.7-0.2c-0.3,0-0.5,0.1-0.7,0.2
		s-0.4,0.3-0.6,0.4c-0.2,0.2-0.3,0.4-0.4,0.7S211,17,211,17.3z M213.5,13.6c-0.1,0-0.3,0-0.4-0.1c-0.1,0-0.2-0.1-0.3-0.1
		c-0.1,0-0.2-0.1-0.3-0.1c-0.1,0-0.2-0.1-0.3-0.1c-0.1,0-0.2,0-0.3,0.1s-0.1,0.1-0.1,0.2c0,0.1-0.1,0.1-0.1,0.2s0,0.1,0,0.1h-0.4
		c0,0,0-0.1,0-0.2c0-0.1,0.1-0.2,0.1-0.3c0.1-0.1,0.2-0.2,0.3-0.3s0.3-0.1,0.4-0.1c0.1,0,0.3,0,0.4,0.1c0.1,0,0.2,0.1,0.3,0.1
		c0.1,0.1,0.2,0.1,0.3,0.1c0.1,0,0.2,0.1,0.3,0.1c0.1,0,0.2,0,0.3-0.1c0.1,0,0.1-0.1,0.2-0.2c0-0.1,0.1-0.1,0.1-0.2c0,0,0-0.1,0-0.1
		h0.4c0,0,0,0.1,0,0.2c0,0.1-0.1,0.2-0.1,0.3c-0.1,0.1-0.2,0.2-0.3,0.3C213.9,13.6,213.7,13.6,213.5,13.6z"/>
	<path class="st0" d="M218.7,19.9c-0.4,0-0.7-0.1-1-0.2c-0.3-0.1-0.6-0.3-0.8-0.6c-0.2-0.2-0.4-0.5-0.5-0.8c-0.1-0.3-0.2-0.7-0.2-1
		c0-0.4,0.1-0.7,0.2-1c0.1-0.3,0.3-0.6,0.5-0.8c0.2-0.2,0.5-0.4,0.8-0.6s0.6-0.2,1-0.2c0.4,0,0.7,0.1,1,0.2s0.6,0.3,0.8,0.6
		s0.4,0.5,0.5,0.8c0.1,0.3,0.2,0.6,0.2,1c0,0.1,0,0.1,0,0.2s0,0.1,0,0.1h-4.3c0,0.3,0.1,0.5,0.2,0.8c0.1,0.2,0.2,0.4,0.4,0.6
		c0.2,0.2,0.4,0.3,0.6,0.4c0.2,0.1,0.4,0.1,0.7,0.1c0.2,0,0.3,0,0.5-0.1c0.2,0,0.3-0.1,0.4-0.2c0.1-0.1,0.3-0.2,0.4-0.3
		c0.1-0.1,0.2-0.2,0.3-0.4l0.6,0.2c-0.1,0.2-0.2,0.4-0.3,0.5c-0.1,0.2-0.3,0.3-0.5,0.4c-0.2,0.1-0.4,0.2-0.6,0.3
		S219,19.9,218.7,19.9z M220.6,17c0-0.3-0.1-0.5-0.2-0.7c-0.1-0.2-0.2-0.4-0.4-0.6c-0.2-0.2-0.4-0.3-0.6-0.4s-0.4-0.1-0.7-0.1
		c-0.2,0-0.5,0-0.7,0.1s-0.4,0.2-0.6,0.4c-0.2,0.2-0.3,0.4-0.4,0.6c-0.1,0.2-0.2,0.5-0.2,0.7H220.6z"/>
	<path class="st0" d="M223.9,19.9c-0.4,0-0.8-0.1-1.2-0.2c-0.4-0.1-0.7-0.3-1-0.6l0.3-0.4c0.3,0.2,0.6,0.4,0.9,0.5
		c0.3,0.1,0.6,0.2,0.9,0.2c0.4,0,0.7-0.1,1-0.2s0.4-0.4,0.4-0.7c0-0.1,0-0.3-0.1-0.4c-0.1-0.1-0.2-0.2-0.3-0.2
		c-0.1-0.1-0.3-0.1-0.5-0.2s-0.4-0.1-0.7-0.2c-0.3-0.1-0.5-0.1-0.8-0.2s-0.4-0.2-0.5-0.2c-0.1-0.1-0.2-0.2-0.3-0.3
		c-0.1-0.1-0.1-0.3-0.1-0.5c0-0.3,0.1-0.5,0.2-0.7c0.1-0.2,0.2-0.4,0.4-0.5c0.2-0.1,0.4-0.2,0.6-0.3c0.2-0.1,0.5-0.1,0.7-0.1
		c0.4,0,0.7,0.1,1.1,0.2c0.3,0.1,0.6,0.3,0.8,0.5l-0.3,0.4c-0.2-0.2-0.4-0.3-0.7-0.4c-0.3-0.1-0.5-0.1-0.8-0.1c-0.2,0-0.3,0-0.5,0.1
		c-0.1,0-0.3,0.1-0.4,0.2c-0.1,0.1-0.2,0.2-0.3,0.3c-0.1,0.1-0.1,0.3-0.1,0.4c0,0.1,0,0.2,0.1,0.3c0,0.1,0.1,0.2,0.2,0.2
		s0.2,0.1,0.4,0.2c0.2,0,0.4,0.1,0.6,0.2c0.3,0.1,0.6,0.2,0.9,0.2c0.2,0.1,0.5,0.2,0.6,0.3c0.2,0.1,0.3,0.2,0.4,0.4
		c0.1,0.1,0.1,0.3,0.1,0.5c0,0.5-0.2,0.8-0.5,1.1C225,19.8,224.5,19.9,223.9,19.9z"/>
	<path class="st0" d="M185.4,31.5v-6.9h0.7v6.9H185.4z"/>
	<path class="st0" d="M192,31.5h-0.7v-2.8c0-0.6-0.1-1-0.3-1.3c-0.2-0.3-0.5-0.4-0.8-0.4c-0.2,0-0.4,0-0.6,0.1
		c-0.2,0.1-0.4,0.2-0.5,0.3s-0.3,0.3-0.4,0.5c-0.1,0.2-0.2,0.4-0.3,0.6v3.1h-0.7v-5.1h0.6v1.1c0.2-0.4,0.5-0.7,0.9-0.9
		c0.4-0.2,0.8-0.3,1.3-0.3c0.3,0,0.5,0.1,0.7,0.2c0.2,0.1,0.4,0.3,0.5,0.4c0.1,0.2,0.2,0.4,0.3,0.7s0.1,0.6,0.1,0.9V31.5z"/>
	<path class="st0" d="M195.8,31.3c0,0-0.1,0-0.2,0.1s-0.2,0.1-0.3,0.1c-0.1,0-0.2,0.1-0.3,0.1c-0.1,0-0.3,0-0.4,0
		c-0.1,0-0.3,0-0.4-0.1s-0.2-0.1-0.3-0.2s-0.2-0.2-0.2-0.3c-0.1-0.1-0.1-0.3-0.1-0.4v-3.6h-0.7v-0.5h0.7v-1.7h0.7v1.7h1.2v0.5h-1.2
		v3.4c0,0.2,0.1,0.3,0.2,0.4c0.1,0.1,0.3,0.1,0.4,0.1c0.2,0,0.4,0,0.5-0.1c0.1-0.1,0.2-0.1,0.3-0.1L195.8,31.3z"/>
	<path class="st0" d="M198.7,31.6c-0.4,0-0.7-0.1-1-0.2c-0.3-0.1-0.6-0.3-0.8-0.6c-0.2-0.2-0.4-0.5-0.5-0.8c-0.1-0.3-0.2-0.7-0.2-1
		c0-0.4,0.1-0.7,0.2-1c0.1-0.3,0.3-0.6,0.5-0.8c0.2-0.2,0.5-0.4,0.8-0.6s0.6-0.2,1-0.2c0.4,0,0.7,0.1,1,0.2s0.6,0.3,0.8,0.6
		s0.4,0.5,0.5,0.8c0.1,0.3,0.2,0.6,0.2,1c0,0.1,0,0.1,0,0.2s0,0.1,0,0.1h-4.3c0,0.3,0.1,0.5,0.2,0.8c0.1,0.2,0.2,0.4,0.4,0.6
		c0.2,0.2,0.4,0.3,0.6,0.4c0.2,0.1,0.4,0.1,0.7,0.1c0.2,0,0.3,0,0.5-0.1c0.2,0,0.3-0.1,0.4-0.2c0.1-0.1,0.3-0.2,0.4-0.3
		c0.1-0.1,0.2-0.2,0.3-0.4l0.6,0.2c-0.1,0.2-0.2,0.4-0.3,0.5c-0.1,0.2-0.3,0.3-0.5,0.4s-0.4,0.2-0.6,0.3S198.9,31.6,198.7,31.6z
		 M200.5,28.7c0-0.3-0.1-0.5-0.2-0.7c-0.1-0.2-0.2-0.4-0.4-0.6c-0.2-0.2-0.4-0.3-0.6-0.4s-0.4-0.1-0.7-0.1c-0.2,0-0.5,0-0.7,0.1
		s-0.4,0.2-0.6,0.4c-0.2,0.2-0.3,0.4-0.4,0.6s-0.2,0.5-0.2,0.7H200.5z"/>
	<path class="st0" d="M202.2,24.4h0.7v6c0,0.2,0.1,0.3,0.2,0.4c0.1,0.1,0.3,0.2,0.4,0.2c0.1,0,0.2,0,0.3,0c0.1,0,0.2,0,0.3-0.1
		l0.1,0.5c-0.1,0.1-0.3,0.1-0.5,0.1c-0.2,0-0.3,0-0.5,0c-0.3,0-0.5-0.1-0.7-0.3c-0.2-0.2-0.3-0.4-0.3-0.7V24.4z"/>
	<path class="st0" d="M204.8,25.4v-1h0.7v1H204.8z M204.8,31.5v-5.1h0.7v5.1H204.8z"/>
	<path class="st0" d="M209,31.6c-0.4,0-0.7-0.1-1-0.2c-0.3-0.1-0.5-0.3-0.7-0.6c-0.2-0.2-0.4-0.5-0.5-0.8c-0.1-0.3-0.2-0.6-0.2-1
		c0-0.4,0.1-0.7,0.2-1s0.3-0.6,0.5-0.8c0.2-0.2,0.5-0.4,0.7-0.6c0.3-0.1,0.6-0.2,1-0.2c0.4,0,0.8,0.1,1.1,0.3
		c0.3,0.2,0.6,0.5,0.8,0.8v-1.1h0.6v5.1c0,0.4-0.1,0.7-0.2,0.9s-0.3,0.5-0.5,0.7s-0.5,0.3-0.8,0.4c-0.3,0.1-0.6,0.1-1,0.1
		c-0.6,0-1.1-0.1-1.4-0.3c-0.4-0.2-0.6-0.5-0.9-0.8l0.4-0.3c0.2,0.3,0.5,0.6,0.8,0.7c0.3,0.2,0.7,0.2,1.1,0.2c0.2,0,0.5,0,0.7-0.1
		s0.4-0.2,0.6-0.3c0.2-0.1,0.3-0.3,0.4-0.5c0.1-0.2,0.1-0.4,0.1-0.7v-1c-0.2,0.3-0.5,0.6-0.8,0.8C209.7,31.5,209.4,31.6,209,31.6z
		 M209.2,31c0.2,0,0.4,0,0.6-0.1c0.2-0.1,0.4-0.2,0.5-0.3c0.2-0.1,0.3-0.3,0.4-0.4c0.1-0.1,0.2-0.3,0.2-0.5v-1.6
		c-0.1-0.2-0.2-0.4-0.3-0.5c-0.1-0.2-0.3-0.3-0.4-0.4c-0.2-0.1-0.3-0.2-0.5-0.3c-0.2-0.1-0.4-0.1-0.5-0.1c-0.3,0-0.5,0.1-0.8,0.2
		s-0.4,0.3-0.6,0.5c-0.2,0.2-0.3,0.4-0.4,0.7c-0.1,0.2-0.1,0.5-0.1,0.8c0,0.3,0,0.5,0.1,0.8s0.2,0.5,0.4,0.6
		c0.2,0.2,0.4,0.3,0.6,0.4C208.7,31,208.9,31,209.2,31z"/>
	<path class="st0" d="M215.2,31.6c-0.4,0-0.7-0.1-1-0.2c-0.3-0.1-0.6-0.3-0.8-0.6c-0.2-0.2-0.4-0.5-0.5-0.8c-0.1-0.3-0.2-0.7-0.2-1
		c0-0.4,0.1-0.7,0.2-1c0.1-0.3,0.3-0.6,0.5-0.8c0.2-0.2,0.5-0.4,0.8-0.6s0.6-0.2,1-0.2c0.4,0,0.7,0.1,1,0.2s0.6,0.3,0.8,0.6
		s0.4,0.5,0.5,0.8c0.1,0.3,0.2,0.6,0.2,1c0,0.1,0,0.1,0,0.2s0,0.1,0,0.1h-4.3c0,0.3,0.1,0.5,0.2,0.8c0.1,0.2,0.2,0.4,0.4,0.6
		c0.2,0.2,0.4,0.3,0.6,0.4c0.2,0.1,0.4,0.1,0.7,0.1c0.2,0,0.3,0,0.5-0.1c0.2,0,0.3-0.1,0.4-0.2c0.1-0.1,0.3-0.2,0.4-0.3
		c0.1-0.1,0.2-0.2,0.3-0.4l0.6,0.2c-0.1,0.2-0.2,0.4-0.3,0.5c-0.1,0.2-0.3,0.3-0.5,0.4s-0.4,0.2-0.6,0.3S215.4,31.6,215.2,31.6z
		 M217,28.7c0-0.3-0.1-0.5-0.2-0.7c-0.1-0.2-0.2-0.4-0.4-0.6c-0.2-0.2-0.4-0.3-0.6-0.4s-0.4-0.1-0.7-0.1c-0.2,0-0.5,0-0.7,0.1
		s-0.4,0.2-0.6,0.4c-0.2,0.2-0.3,0.4-0.4,0.6s-0.2,0.5-0.2,0.7H217z"/>
	<path class="st0" d="M223,31.5h-0.7v-2.8c0-0.6-0.1-1-0.3-1.3c-0.2-0.3-0.5-0.4-0.8-0.4c-0.2,0-0.4,0-0.6,0.1
		c-0.2,0.1-0.4,0.2-0.5,0.3s-0.3,0.3-0.4,0.5c-0.1,0.2-0.2,0.4-0.3,0.6v3.1h-0.7v-5.1h0.6v1.1c0.2-0.4,0.5-0.7,0.9-0.9
		c0.4-0.2,0.8-0.3,1.3-0.3c0.3,0,0.5,0.1,0.7,0.2c0.2,0.1,0.4,0.3,0.5,0.4c0.1,0.2,0.2,0.4,0.3,0.7s0.1,0.6,0.1,0.9V31.5z"/>
	<path class="st0" d="M226.8,31.3c0,0-0.1,0-0.2,0.1s-0.2,0.1-0.3,0.1c-0.1,0-0.2,0.1-0.3,0.1c-0.1,0-0.3,0-0.4,0
		c-0.1,0-0.3,0-0.4-0.1s-0.2-0.1-0.3-0.2s-0.2-0.2-0.2-0.3c-0.1-0.1-0.1-0.3-0.1-0.4v-3.6h-0.7v-0.5h0.7v-1.7h0.7v1.7h1.2v0.5h-1.2
		v3.4c0,0.2,0.1,0.3,0.2,0.4c0.1,0.1,0.3,0.1,0.4,0.1c0.2,0,0.4,0,0.5-0.1c0.1-0.1,0.2-0.1,0.3-0.1L226.8,31.3z"/>
	<path class="st0" d="M229.6,31.6c-0.4,0-0.7-0.1-1-0.2c-0.3-0.1-0.6-0.3-0.8-0.6c-0.2-0.2-0.4-0.5-0.5-0.8c-0.1-0.3-0.2-0.7-0.2-1
		c0-0.4,0.1-0.7,0.2-1c0.1-0.3,0.3-0.6,0.5-0.8c0.2-0.2,0.5-0.4,0.8-0.6s0.6-0.2,1-0.2c0.4,0,0.7,0.1,1,0.2s0.6,0.3,0.8,0.6
		s0.4,0.5,0.5,0.8c0.1,0.3,0.2,0.6,0.2,1c0,0.1,0,0.1,0,0.2s0,0.1,0,0.1h-4.3c0,0.3,0.1,0.5,0.2,0.8c0.1,0.2,0.2,0.4,0.4,0.6
		c0.2,0.2,0.4,0.3,0.6,0.4c0.2,0.1,0.4,0.1,0.7,0.1c0.2,0,0.3,0,0.5-0.1c0.2,0,0.3-0.1,0.4-0.2c0.1-0.1,0.3-0.2,0.4-0.3
		c0.1-0.1,0.2-0.2,0.3-0.4l0.6,0.2c-0.1,0.2-0.2,0.4-0.3,0.5c-0.1,0.2-0.3,0.3-0.5,0.4s-0.4,0.2-0.6,0.3S229.9,31.6,229.6,31.6z
		 M231.5,28.7c0-0.3-0.1-0.5-0.2-0.7c-0.1-0.2-0.2-0.4-0.4-0.6c-0.2-0.2-0.4-0.3-0.6-0.4s-0.4-0.1-0.7-0.1c-0.2,0-0.5,0-0.7,0.1
		s-0.4,0.2-0.6,0.4c-0.2,0.2-0.3,0.4-0.4,0.6s-0.2,0.5-0.2,0.7H231.5z"/>
	<path class="st0" d="M234.8,31.6c-0.4,0-0.8-0.1-1.2-0.2c-0.4-0.1-0.7-0.3-1-0.6l0.3-0.4c0.3,0.2,0.6,0.4,0.9,0.5
		c0.3,0.1,0.6,0.2,0.9,0.2c0.4,0,0.7-0.1,1-0.2c0.2-0.2,0.4-0.4,0.4-0.7c0-0.1,0-0.3-0.1-0.4c-0.1-0.1-0.2-0.2-0.3-0.2
		c-0.1-0.1-0.3-0.1-0.5-0.2c-0.2-0.1-0.4-0.1-0.7-0.2c-0.3-0.1-0.5-0.1-0.8-0.2s-0.4-0.2-0.5-0.2c-0.1-0.1-0.2-0.2-0.3-0.3
		c-0.1-0.1-0.1-0.3-0.1-0.5c0-0.3,0.1-0.5,0.2-0.7c0.1-0.2,0.2-0.4,0.4-0.5s0.4-0.2,0.6-0.3c0.2-0.1,0.5-0.1,0.7-0.1
		c0.4,0,0.7,0.1,1.1,0.2c0.3,0.1,0.6,0.3,0.8,0.5l-0.3,0.4c-0.2-0.2-0.4-0.3-0.7-0.4s-0.5-0.1-0.8-0.1c-0.2,0-0.3,0-0.5,0.1
		c-0.1,0-0.3,0.1-0.4,0.2s-0.2,0.2-0.3,0.3c-0.1,0.1-0.1,0.3-0.1,0.4c0,0.1,0,0.2,0.1,0.3c0,0.1,0.1,0.2,0.2,0.2s0.2,0.1,0.4,0.2
		s0.4,0.1,0.6,0.2c0.3,0.1,0.6,0.2,0.9,0.2c0.2,0.1,0.5,0.2,0.6,0.3c0.2,0.1,0.3,0.2,0.4,0.4c0.1,0.1,0.1,0.3,0.1,0.5
		c0,0.5-0.2,0.8-0.5,1.1C235.9,31.5,235.5,31.6,234.8,31.6z"/>
</g>
<line class="st1" x1="173.7" y1="10.7" x2="173.7" y2="33.4"/>
</svg>
